
<svg version="1.1" xmlns="http://www.w3.org/2000/svg" xmlns:xlink="http://www.w3.org/1999/xlink" x="0px" y="0px" viewBox="0 0 1000 1000" enable-background="new 0 0 1000 1000" xml:space="preserve">
<g><path fill="#000" d="M173.3,881.1c0,60.1,48.8,108.9,108.9,108.9c60.1,0,108.9-48.8,108.9-108.9c0-60.1-48.7-108.9-108.9-108.9C222.1,772.2,173.3,821,173.3,881.1z M717.8,881.1c0,60.1,48.8,108.9,108.9,108.9s108.9-48.8,108.9-108.9c0-60.1-48.7-108.9-108.9-108.9S717.8,821,717.8,881.1z M366.5,623.7l602.6-172.2c11.5-3.3,20.9-15.7,20.9-27.7V124.3H222.3V31.8c0-12-9.8-21.8-21.8-21.8H31.8C19.8,10,10,19.8,10,31.8v87.1h105.8L223,612l10.3,51.3V745c0,12,9.8,21.8,21.8,21.8h27.2h544.4h141.6c12,0,21.8-9.8,21.8-21.8v-81.7H377.7C315.1,663.3,313.8,638.8,366.5,623.7z"/></g>
</svg>
